<svg viewBox="0 0 100 80" xmlns="http://www.w3.org/2000/svg" aria-hidden="true">
<rect x="50" y="0" width="10" height="10" fill="#F7B455"/>
<rect x="40" y="10" width="10" height="10" fill="#F7B455"/>
<rect x="50" y="10" width="10" height="10" fill="#F7B455"/>
<rect x="70" y="10" width="10" height="10" fill="#4F69EB"/>
<rect x="10" y="20" width="10" height="10" fill="#BF5637"/>
<rect x="30" y="20" width="10" height="10" fill="#EC904D"/>
<rect x="40" y="20" width="10" height="10" fill="#F7B455"/>
<rect x="50" y="20" width="10" height="10" fill="#F7B455"/>
<rect x="10" y="30" width="10" height="10" fill="#BF5637"/>
<rect x="20" y="30" width="10" height="10" fill="#EC904D"/>
<rect x="30" y="30" width="10" height="10" fill="#EC904D"/>
<rect x="40" y="30" width="10" height="10" fill="#F7B455"/>
<rect x="50" y="30" width="10" height="10" fill="#F7B455"/>
<rect x="80" y="30" width="10" height="10" fill="#4F69EB"/>
<rect x="10" y="40" width="10" height="10" fill="#BF5637"/>
<rect x="30" y="40" width="10" height="10" fill="#EC904D"/>
<rect x="40" y="40" width="10" height="10" fill="#F7B455"/>
<rect x="50" y="40" width="10" height="10" fill="#F7B455"/>
<rect x="40" y="50" width="10" height="10" fill="#F7B455"/>
<rect x="50" y="50" width="10" height="10" fill="#F7B455"/>
<rect x="70" y="50" width="10" height="10" fill="#4F69EB"/>
<rect x="50" y="60" width="10" height="10" fill="#F7B455"/>
</svg>